<?xml version="1.0" encoding="utf-8"?>
<!-- Generator: Adobe Illustrator 24.1.2, SVG Export Plug-In . SVG Version: 6.00 Build 0)  -->
<svg version="1.1" id="Camada_1" xmlns="http://www.w3.org/2000/svg" xmlns:xlink="http://www.w3.org/1999/xlink" x="0px" y="0px"
	 viewBox="0 0 867.4 1000" style="enable-background:new 0 0 867.4 1000;" xml:space="preserve">
<style type="text/css">
	.st0{fill:#FFFFFF;}
</style>
<g>
	<g transform="translate(0.000000,512.000000) scale(0.100000,-0.100000)">
		<path class="st0" d="M6374.3,4964.4c-107.7-28.8-209.6-63.5-225-76.9c-50-40.4-32.7-126.9,76.9-384.6
			c59.6-138.5,142.3-355.7,184.6-484.6c101.9-303.8,113.5-448,59.6-767.2c-32.7-190.4-42.3-351.9-50-796.1
			c-15.4-861.5-103.8-1399.9-328.8-1980.6C5524.3-992.8,4293.7-1887,1870.8-2592.7c-513.4-148.1-690.3-223.1-1073-451.9
			c-232.7-136.5-582.7-392.3-628.8-455.7c-23.1-34.6-28.8-101.9-28.8-319.2c0-334.6-15.4-311.5,348.1-490.3
			c551.9-271.2,1069.1-446.1,1382.6-467.3c269.2-21.2,1069.2,76.9,1632.6,196.1c2196,469.2,3801.6,1657.6,4590,3395.9
			c367.3,809.6,542.3,1753.7,488.4,2621c-38.5,613.4-136.5,1057.6-300,1353.7c-126.9,232.7-240.4,353.8-613.4,655.7
			c-488.4,394.2-705.7,713.4-846.1,1242.2C6722.3,5064.4,6726.2,5062.5,6374.3,4964.4z"/>
	</g>
</g>
</svg>
