<?xml version="1.0" encoding="utf-8"?>
<!-- Generator: Adobe Illustrator 24.1.2, SVG Export Plug-In . SVG Version: 6.00 Build 0)  -->
<svg version="1.1" id="Camada_1" xmlns="http://www.w3.org/2000/svg" xmlns:xlink="http://www.w3.org/1999/xlink" x="0px" y="0px"
	 viewBox="0 0 707.5 1047.4" style="enable-background:new 0 0 707.5 1047.4;" xml:space="preserve" preserveAspectRatio="none">
<style type="text/css">
	.st0{fill-rule:evenodd;clip-rule:evenodd;fill:#FFDAAB;}
	.st1{fill-rule:evenodd;clip-rule:evenodd;fill:url(#SVGID_1_);}
	.st2{opacity:0.2;fill:url(#SVGID_2_);enable-background:new    ;}
	.st3{fill-rule:evenodd;clip-rule:evenodd;fill:url(#SVGID_3_);}
	.st4{opacity:0.7;fill-rule:evenodd;clip-rule:evenodd;fill:url(#SVGID_4_);enable-background:new    ;}
	.st5{opacity:0.3;fill-rule:evenodd;clip-rule:evenodd;fill:url(#SVGID_5_);enable-background:new    ;}
	.st6{opacity:0.3;fill-rule:evenodd;clip-rule:evenodd;fill:url(#SVGID_6_);enable-background:new    ;}
	.st7{opacity:0.3;fill-rule:evenodd;clip-rule:evenodd;fill:url(#SVGID_7_);enable-background:new    ;}
	.st8{opacity:0.3;fill-rule:evenodd;clip-rule:evenodd;fill:url(#SVGID_8_);enable-background:new    ;}
	.st9{fill-rule:evenodd;clip-rule:evenodd;fill:#A53456;}
	.st10{fill:url(#SVGID_9_);}
	.st11{opacity:0.2;fill-rule:evenodd;clip-rule:evenodd;fill:url(#SVGID_10_);enable-background:new    ;}
	.st12{opacity:0.2;fill-rule:evenodd;clip-rule:evenodd;fill:url(#SVGID_11_);enable-background:new    ;}
	.st13{fill:#A53456;}
	.st14{fill-rule:evenodd;clip-rule:evenodd;fill:#FFD599;}
	.st15{fill-rule:evenodd;clip-rule:evenodd;fill:url(#SVGID_12_);}
	.st16{fill-rule:evenodd;clip-rule:evenodd;fill:url(#SVGID_13_);}
	.st17{opacity:0.7;fill-rule:evenodd;clip-rule:evenodd;fill:url(#SVGID_14_);enable-background:new    ;}
	.st18{fill-rule:evenodd;clip-rule:evenodd;fill:url(#SVGID_15_);}
	.st19{fill-rule:evenodd;clip-rule:evenodd;fill:#FFCDAB;}
	.st20{opacity:0.5;fill-rule:evenodd;clip-rule:evenodd;fill:#FFD599;enable-background:new    ;}
	.st21{opacity:0.7;fill-rule:evenodd;clip-rule:evenodd;fill:url(#SVGID_16_);enable-background:new    ;}
	.st22{opacity:0.7;fill-rule:evenodd;clip-rule:evenodd;fill:url(#SVGID_17_);enable-background:new    ;}
	.st23{opacity:0.7;fill-rule:evenodd;clip-rule:evenodd;fill:url(#SVGID_18_);enable-background:new    ;}
	.st24{opacity:0.2;fill-rule:evenodd;clip-rule:evenodd;fill:url(#SVGID_19_);enable-background:new    ;}
	.st25{opacity:0.2;fill-rule:evenodd;clip-rule:evenodd;fill:url(#SVGID_20_);enable-background:new    ;}
	.st26{opacity:0.72;}
</style>
<g>
	<g>
		<g>
			<g>
				<path class="st0" d="M12.2,1039.1c-28.5-50-0.2-116.8,14.1-196l7,0.5l85.5,6.3l-4.2-0.7L35.7,837l-2.9-38.4
					c6.5-47.6,19.1-129,21.6-177.9l56.6-6.6l-56-6c0.2-5.1,0.4-10.1,0.5-15.1c0.5-20.9,0.5-42.6-0.1-64.5l16.2-3.7l-16.3-0.4
					c-0.1-3.3-1.7-41.5-2.3-52.8l-8.3-101.8c-9.5-93-21.5-164.4-21.5-164.4l543.4-0.4c0,0,38.8,39.4,25,113.3
					c-0.1,0.4-0.1,0.8-0.2,1.1l-10.2,1.3l-17.2,2.1l26.7,0.7c-8,43.9-15.9,98.9-21.1,163.5l-69.5,4.6l62.7,4.8l5.6,7.7
					c-0.2,3.4-0.5,6.8-0.7,10.2c-0.9,14.5-1.7,29.4-2.3,44.8c0,1.2-0.1,2.4-0.1,3.5l-18.9,2.1L565,571c-0.1,2.3-0.2,4.6-0.2,6.9
					c0,1.6-0.1,3.3-0.1,4.9c-0.1,3.9-0.2,7.8-0.3,11.7l0,0c-0.7,37.9,0.1,74.2,2,108.4l-6.4,1.5l-3.5,26.1l4.2,85.1l18.1,17.2
					c1.1,7.8,2.2,15.4,3.3,22.7l-6.6,2.6l0.3,2.3c-1.5,1.8-2.4,3.9-2.5,6.2c-0.1,3.2,1.5,6.1,4.1,8.4v0.3l0.8,0.4l7.1,3.3l0.5,0.2
					c11.4,67.8,23.1,108.4,23.1,108.4l-46.2,3.9L12.2,1039.1z"/>
				
					<radialGradient id="SVGID_1_" cx="7248.9102" cy="-5460.9741" r="663.7963" gradientTransform="matrix(-2.562548e-02 0.9997 0.9997 2.562548e-02 6012.498 -6663.1372)" gradientUnits="userSpaceOnUse">
					<stop  offset="0" style="stop-color:#FBD767"/>
					<stop  offset="1" style="stop-color:#D65F6E"/>
				</radialGradient>
				<path class="st1" d="M19.4,1038.3c0,0-35.3-28.9,14-194.7c0-0.1,0.1-0.2,0.1-0.3l81.1,6l11.4,0.8l-83.1-12.9L40,798.8
					c6.5-47.6,19.1-129,21.6-177.9l37.5-6.7l-36.9-5.9c0.2-5.1,0.4-10.1,0.5-15.1c0.5-20.9,0.5-42.6-0.1-64.5l16.2-3.7l-16.3-0.4
					c-0.1-3.3-0.2-6.6-0.3-9.9l-0.3-8.9c-0.5-11.3-1-22.7-1.7-34L51.9,370c-0.6-5.7-1.2-11.3-1.8-16.8c-4.6-43-6.5-81-13.5-106.8
					C-18.1,45,36.2,12.9,36.2,12.9l567.7,95.8c0,0,16.2,91.3-4.9,207.9l-7.5,1.7l-10.5,2.4l-10,2.3l26.7,0.7
					c-8,43.9-15.9,98.9-21.1,163.5l-69.5,4.6l62.7,4.8l5.6,7.7c-1.3,18.8-2.4,38.3-3.2,58.5l-18.9,2.1l18.6,6.3
					c-0.1,2.3-0.2,4.6-0.2,6.9c-1.3,43.9-0.5,85.9,1.6,125.1l12.4,130c1,7.4,2.1,14.6,3.1,21.5c-5.6,0.3-10.5,2.6-13.3,5.9
					c-1.5,1.8-2.4,3.9-2.5,6.2c-0.1,3.2,1.5,6.1,4.1,8.4c0.3,0.2,0.5,0.4,0.8,0.7l7.1,3.3c1.6,0.4,3.3,0.6,5.1,0.7
					c0.9,0,1.8,0,2.6-0.1c11.4,67.7,23.1,108.2,23.1,108.2l-53.3,3.7L19.4,1038.3z"/>
				
					<linearGradient id="SVGID_2_" gradientUnits="userSpaceOnUse" x1="-1229.6724" y1="1382.5099" x2="-1247.1849" y2="527.8759" gradientTransform="matrix(1 1.425933e-03 1.425933e-03 -1 1555.5364 1304.5394)">
					<stop  offset="0" style="stop-color:#B34537"/>
					<stop  offset="1" style="stop-color:#DD9057"/>
				</linearGradient>
				<path class="st2" d="M69.2,831.6c-0.2-8,2.4-172,20.7-187.4s88.9-27.1,90.2-29.9c1.3-2.8-100.2-12.1-100.4-18.1
					c-0.5-11.4-3.7-11.4-3.8-20.4c-0.2-9.1-5.1-33.5,5.4-38.8c7.3-3.7,7.3-20.3-0.5-28.2c-11.2-11.4-8-244.1,6.7-260.1
					c14.7-15.9,464.3-53.6,478.9-26.7c13.3,24.6,14.2,76.6,5,83.2c-20.3,14.5-21.4,9.7-96,22.1c2.4-0.1,105.4-4.6,108.4,2.1
					c3,6.8-13.8,136.1-25.5,143.7c-11.7,7.6-277.4,31.2-277.4,31.2s214.3-11.5,265.2-5.6l0,0c8.4,1,14.9,2.1,18.7,3.4l0,0
					c1.8,0.6,3,1.3,3.4,2c0,0-11.1,54.4-11.6,54.7c-6.2,3.6-16,5.2-16,5.2s17.6,10.1,24.2,18.2c0.1,0.2,0.3,0.3,0.4,0.5
					c0.7,0.9,1.1,1.8,1.1,2.7c-0.1,2-0.6,5.2-1.3,9.1l0,0c-0.1,0.7-0.3,1.4-0.4,2.2l0,0c-2.5,12.2-6.4,29.3-4.6,35.9
					c2.5,9.2-14.1,54.1-14.1,54.1l1.4,85.9l-72.9,9.6c1.7-0.1,69.2-3.8,72.7-1.3s18.7,107.7,16.7,110.1c-2,2.3,15.5,5-77,13.5
					c-382.7,35.4-426-27.4-424.9-41.7c1.2-14.3,75-12,75-12S69.4,839.6,69.2,831.6z M611.9,971.4c0-0.2-0.1-0.4-0.1-0.6v-0.1
					c-0.9-3.8-2-8.2-3.1-13.1c-1.1-4.9-2.4-10.4-3.7-16.5c-0.5-2.5-1.1-5.2-1.7-7.9c-3.2-15.1-6.6-33.1-10.1-53.5
					c-0.1,0-0.3,0-0.4,0l0,0c-0.7,0.1-1.5,0.1-2.2,0h-0.4c-1.6-0.1-3.2-0.3-4.7-0.7l-7.1-3.3c-0.3-0.2-0.6-0.4-0.8-0.7
					c-2.6-2.3-4.2-5.2-4.1-8.4c0.1-2.1,0.9-4.1,2.2-5.8c0.1-0.1,0.2-0.2,0.3-0.3c2.8-3.3,7.7-5.6,13.3-5.9c-1.1-7-2.1-14.1-3.1-21.5
					l-12.4-130c-2.1-39.2-2.9-81.1-1.6-125.1c0.1-2.3,0.1-4.6,0.2-6.9l-18.6-6.3l18.9-2.1c0.8-20.2,1.8-39.8,3.2-58.5l-5.6-7.7
					l-62.7-4.8l69.5-4.6c5.1-64.6,13.1-119.6,21.1-163.5h-0.4l0,0l-4.5-0.1l0,0l-2.6-0.1l-19.2-0.5l0,0l0,0l10.1-2.3l10.2-1.3
					c0.1-0.4,0.1-0.8,0.2-1.1l7-1.6l0.5-0.1c1.7-9.1,3.1-19.4,4.4-30.4c0,0,0,0,0-0.1c0,0,0,0,0-0.1c3.3-29.2,5.1-63.5,6-95.2l0,0
					v-0.1c0.1-3.8,0.2-7.6,0.3-11.3s0.2-7.3,0.2-10.9c0.9-43.6,0.3-77.6,0.3-77.6l-339.6-34l0,0l-218.8-41l0,0l0,0l-6.6-1.2L37.1,13
					l-0.6-0.1c0,0,0,0-0.1,0.1l0,0l0,0c-0.3,0.2-1.1,0.9-2.4,2.1c-7.2,7.3-27.6,35.7-20,116.1c0,0.3,0.1,0.7,0.1,1s0,0.5,0.1,0.8
					c0,0.3,0.1,0.5,0.1,0.8c0,0.2,0,0.3,0.1,0.5c1.1,11.1,2.8,23.2,5.1,36.3c0.1,0.5,0.2,1,0.3,1.6c0.1,0.4,0.1,0.7,0.2,1.1
					c0.1,0.4,0.2,0.9,0.2,1.4c0,0.2,0.1,0.4,0.1,0.6c0.1,0.6,0.2,1.2,0.3,1.8c1.7,9,3.7,18.6,5.9,28.6c2.7,11.8,5.8,24.3,9.5,37.5
					l0,0c0.3,1.2,0.6,2.3,1,3.5c7.3,25.6,9.6,64.2,13.5,106.8c0.5,5.5,1,11,1.6,16.6l8.4,102c0.7,11.3,1.2,22.7,1.7,34l0.3,8.9
					c0.1,3.3,0.2,6.6,0.3,9.9l0,0l3.4,0.1h0.3l5,0.1l0,0l7.1,0.2l0,0H79L62.8,529c0.6,21.9,0.6,43.5,0.1,64.5
					c-0.1,5-0.3,10-0.5,15.1l11.5,1.9l0,0l25.3,4.1l-20.1,3.6l0,0l0,0L61.9,621c-2.5,48.9-15.1,130.3-21.6,177.9l2.9,38.4l83.1,12.9
					h-0.6l0,0l-10.8-0.8h-0.6l0,0l-80.5-5.9l0,0l-0.1,0.3h-0.4l-6.6-0.5l0,0l0,0c-14.2,79.1-42.6,145.9-14.1,195.9l0,0l0,0l3.8-0.3
					l0,0l21.5-1.7l2.1-0.2l4.9-0.4l55.4-4.3l79.1-6.2l96.5-7.5l90.3-7l196.6-19.9l53.3-3.7C616.3,987.9,614.6,982.2,611.9,971.4z"/>
				
					<linearGradient id="SVGID_3_" gradientUnits="userSpaceOnUse" x1="7854.022" y1="-5799.3262" x2="7853.3511" y2="-5799.3037" gradientTransform="matrix(-2.562548e-02 0.9997 0.9997 2.562548e-02 6012.498 -6663.1372)">
					<stop  offset="0" style="stop-color:#D65F6E"/>
					<stop  offset="1" style="stop-color:#FBD767"/>
				</linearGradient>
				<path class="st3" d="M12,1039.2c0,0,1.2-0.1,3.4-0.3C13.3,1039.3,12,1039.2,12,1039.2z"/>
				
					<linearGradient id="SVGID_4_" gradientUnits="userSpaceOnUse" x1="-1180.6882" y1="892.5381" x2="-1182.1454" y2="821.4274" gradientTransform="matrix(0.9996 3.072533e-02 3.072533e-02 -0.9996 1477.7264 1060.8521)">
					<stop  offset="0" style="stop-color:#FFE48F"/>
					<stop  offset="1" style="stop-color:#C77781"/>
				</linearGradient>
				<path class="st4" d="M45.1,211.8l-8.9-30.4L586.1,154l23.2,14.6l-4.3,55.9c0,0-132.5-20.6-297.5-30.5
					C142.6,184.2,45.1,211.8,45.1,211.8z"/>
				
					<linearGradient id="SVGID_5_" gradientUnits="userSpaceOnUse" x1="5917.6787" y1="-5867.2236" x2="6229.2017" y2="-5617.7622" gradientTransform="matrix(0.1276 0.9918 0.9918 -0.1276 5208.4927 -6083.876)">
					<stop  offset="0" style="stop-color:#FFE48F"/>
					<stop  offset="1" style="stop-color:#C77781"/>
				</linearGradient>
				<path class="st5" d="M224.7,613.5c-19.9,3.3-27.2,3.5-19.1,7.9c8,4.4,19.4,2.2,24,1.8c4.7-0.3,24.2,0.4,28.1-4.1s-7.1-11-7.1-11
					s-16.2-9.9-21-2.3S224.7,613.5,224.7,613.5z"/>
				
					<linearGradient id="SVGID_6_" gradientUnits="userSpaceOnUse" x1="5884.374" y1="-5845.4058" x2="6195.9028" y2="-5595.9395" gradientTransform="matrix(0.1276 0.9918 0.9918 -0.1276 5208.4927 -6083.876)">
					<stop  offset="0" style="stop-color:#FFE48F"/>
					<stop  offset="1" style="stop-color:#C77781"/>
				</linearGradient>
				<path class="st6" d="M290.9,614.6c-0.5-6-11.9,0.7-14.3,2.2C274.3,618.3,292.3,630.4,290.9,614.6z"/>
				
					<linearGradient id="SVGID_7_" gradientUnits="userSpaceOnUse" x1="-3795.1335" y1="8061.8379" x2="-3433.1155" y2="8351.7354" gradientTransform="matrix(-0.2287 -0.9797 -2.1322 0.2835 16945.0254 -5682.1235)">
					<stop  offset="0" style="stop-color:#FFE48F"/>
					<stop  offset="1" style="stop-color:#C77781"/>
				</linearGradient>
				<path class="st7" d="M373.3,247.1c22.2-3.3,124-16,115.2-17.6s-115.2,12.4-120.4,12.9c-5.2,0.5-26.8,1.7-31.3,4.4
					s7.6,5.2,7.6,5.2s17.7,3.8,23.3-0.5C373.3,247.1,373.3,247.1,373.3,247.1z"/>
				
					<linearGradient id="SVGID_8_" gradientUnits="userSpaceOnUse" x1="-3754.6628" y1="8148.0029" x2="-3593.3191" y2="8277.2041" gradientTransform="matrix(-0.2287 -0.9797 -2.1322 0.2835 16945.0254 -5682.1235)">
					<stop  offset="0" style="stop-color:#FFE48F"/>
					<stop  offset="1" style="stop-color:#C77781"/>
				</linearGradient>
				<path class="st8" d="M289.7,255.8c0.5,3.1,13.3-1.3,15.9-2.3S288.5,247.7,289.7,255.8z"/>
				<polygon class="st9" points="575.5,504.3 507.1,491.8 569.7,496.6 				"/>
				<polygon class="st9" points="599,316.6 593.3,323.6 542.7,325.1 				"/>
				
					<linearGradient id="SVGID_9_" gradientUnits="userSpaceOnUse" x1="7301.4243" y1="-5672.3667" x2="7407.6064" y2="-5587.3379" gradientTransform="matrix(-2.562548e-02 0.9997 0.9997 2.562548e-02 6012.498 -6663.1372)">
					<stop  offset="0" style="stop-color:#FFE48F"/>
					<stop  offset="1" style="stop-color:#C77781"/>
				</linearGradient>
				<path class="st10" d="M191.1,523.2c0,0-9.6,0.3-23.2,0.3C181.6,523.3,191.1,523.2,191.1,523.2z"/>
				
					<linearGradient id="SVGID_10_" gradientUnits="userSpaceOnUse" x1="7760.9951" y1="-5543.5044" x2="7759.7773" y2="-5543.4634" gradientTransform="matrix(-2.562548e-02 0.9997 0.9997 2.562548e-02 6012.498 -6663.1372)">
					<stop  offset="0" style="stop-color:#B34537"/>
					<stop  offset="1" style="stop-color:#DD9057"/>
				</linearGradient>
				<path class="st11" d="M275.5,952.9c-2.3-0.3-4.7-0.8-7.3-1.3C270.6,952,273,952.5,275.5,952.9z"/>
				
					<linearGradient id="SVGID_11_" gradientUnits="userSpaceOnUse" x1="7854.022" y1="-5799.3262" x2="7853.3511" y2="-5799.3037" gradientTransform="matrix(-2.562548e-02 0.9997 0.9997 2.562548e-02 6012.498 -6663.1372)">
					<stop  offset="0" style="stop-color:#B34537"/>
					<stop  offset="1" style="stop-color:#DD9057"/>
				</linearGradient>
				<path class="st12" d="M12,1039.2c0,0,1.2-0.1,3.4-0.3C13.3,1039.3,12,1039.2,12,1039.2z"/>
				<path class="st13" d="M589.3,880.5c-9.6-0.2-17.3-6-17.1-13c0.1-2.8,1.4-5.3,3.6-7.3c-0.1,0.6-0.2,1.2-0.2,1.8
					c-0.2,6.5,6.7,12,15.5,12.9l2,5.4C591.8,880.5,590.5,880.5,589.3,880.5z"/>
				<path class="st14" d="M707.5,935.8L707.5,935.8L707.5,935.8c-0.2,0.9-1.5,6.3-4.5,14.1c-1.8,4.6-4.1,10-7.2,15.7
					c-1.2,2.3-2.6,4.6-4.1,7c-0.3,0.4-0.5,0.9-0.8,1.3c-4.3,6.5-9.5,13-15.9,18.9c-0.4,0.4-0.9,0.8-1.4,1.2
					c-9.5,8.4-21.5,15.2-36.5,18.4c-45.3,9.5-556.7,33.3-613.4,34.9c-0.2,0-0.4,0-0.6,0c-0.1,0-0.1,0-0.2,0c-0.6,0-1.2,0-1.7,0
					c-0.1,0-0.3,0-0.4,0c-0.8,0-1.5,0-2,0.1l0,0c-0.9,0-1.4,0-1.4,0v-0.1l0,0v-0.1v-0.1l-5.2-7.9c1.5,0,2.9-0.2,4.3-0.4l0,0
					c0.1,0,0.2,0,0.4-0.1l0,0c0.8-0.2,1.6-0.3,2.4-0.6c31.7-9,41.2-69.7,41.2-69.7l54.4-2.8l11.3-0.6c0,0-0.9,3.6-0.9,8.1
					c0,6.1,1.9,14,10.4,16.5c8.3-2,14.4-9.6,18.8-18c1.4-2.7,2.6-5.5,3.6-8.2l11.5-0.6l334.6-24.4l4.7-0.2l5.3-0.3l1-0.1
					c0.2,2.7,0.6,5.5,1,7.9c0.2,0.8,0.3,1.6,0.5,2.3c0.2-0.6,0.4-1.3,0.6-1.9c0-0.1,0.1-0.3,0.1-0.4c0.6-2.3,1.1-5,1.6-7.7
					c0-0.1,0-0.3,0.1-0.4l6.4-0.3l70.3-3.6l0,0l7-0.4h0.4l99-5.1L707.5,935.8z"/>
				
					<linearGradient id="SVGID_12_" gradientUnits="userSpaceOnUse" x1="-1224.4661" y1="455.5916" x2="-1159.2012" y2="140.4561" gradientTransform="matrix(1 1.425933e-03 1.425933e-03 -1 1555.5364 1304.5394)">
					<stop  offset="0" style="stop-color:#FBD767"/>
					<stop  offset="1" style="stop-color:#D65F6E"/>
				</linearGradient>
				<path class="st15" d="M707.5,935.8L707.5,935.8L707.5,935.8c-0.1,0.8-1,6.2-3.3,14c-1.3,4.5-3.1,9.9-5.5,15.6
					c-0.6,1.4-1.2,2.8-1.8,4.2c-0.1,0.3-0.2,0.5-0.4,0.8c-0.3,0.7-0.7,1.5-1,2.2c-0.1,0.2-0.2,0.4-0.3,0.7c-0.1,0.2-0.2,0.4-0.3,0.7
					c-2.9,5.8-6.4,11.7-10.7,17.3c-0.4,0.5-0.7,1-1.1,1.5c-10,12.7-23.9,23.6-42.9,27.6c-21.7,4.5-224.2,20-337.7,22.4l0,0
					c-22.9,0.5-45.9,1-68.5,1.4c-95.8,1.8-183,2.8-210.1,3.1c-0.2,0-0.4,0-0.5,0s-0.1,0-0.2,0c-0.6,0-1.2,0-1.8,0
					c-0.1,0-0.2,0-0.3,0c-1.5,0-2.7,0-3.6,0c-1.2,0-2,0-2.2,0l0,0c0.7,0,1.4-0.1,2.1-0.2c7.7-0.8,14.6-4.6,20.6-10c0,0,0,0,0.1,0
					c0.1-0.1,0.2-0.2,0.3-0.3C60.2,1017,71,975.9,71,975.9l43.3-2.2l11.1-0.6c0,6.1,1.9,14,10.4,16.5c8.3-2,14.4-9.6,18.8-18
					L166,971l60.2-3.1L484,947.4l21.3-1.1l4.7-0.2l2.6-0.1l3.7-0.2c0.2,0.8,0.3,1.6,0.5,2.3c0.2-0.6,0.4-1.3,0.6-1.9
					c0-0.1,0.1-0.3,0.1-0.4l6.5-0.3l73.5-3.8l7-0.4h0.4L707.5,935.8z"/>
				<path class="st14" d="M169.6,962.8c-1,2.7-2.2,5.5-3.5,8.2c-5,10-12.4,19.1-22.8,19.5c-3,0.1-5.4-0.2-7.5-0.8
					c8.3-2,14.4-9.6,18.8-18.1c1.4-2.7,2.6-5.5,3.6-8.2L169.6,962.8z"/>
				<path class="st14" d="M525.5,937.2c-0.4,2.8-0.9,5.6-1.6,8.1c-1.1,4.3-2.4,7.4-4.1,7.3c-1.4,0-2.4-1.9-3.1-4.7
					c0.2-0.6,0.4-1.3,0.6-1.9c0-0.1,0.1-0.3,0.1-0.4c0.6-2.3,1.1-5,1.6-7.7c0-0.1,0-0.3,0.1-0.4L525.5,937.2z"/>
				<g>
					
						<linearGradient id="SVGID_13_" gradientUnits="userSpaceOnUse" x1="7402.1748" y1="-5220.6025" x2="7708.5327" y2="-5222.3232" gradientTransform="matrix(-0.1059 0.9943 0.9943 0.1059 6359.9668 -6951.0176)">
						<stop  offset="0.2712" style="stop-color:#4C8CFF"/>
						<stop  offset="1" style="stop-color:#FBD767"/>
					</linearGradient>
					<path class="st16" d="M44.9,195.8c0,0,0,0,0.1-0.1c0,0,0-0.1,0.1-0.1c0.1-0.1,0.1-0.3,0.3-0.5c0-0.1,0.1-0.1,0.1-0.2
						c0.1-0.2,0.3-0.5,0.4-0.9c0-0.1,0.1-0.1,0.1-0.2c0.3-0.7,0.8-1.6,1.3-2.6c0.1-0.2,0.2-0.4,0.3-0.7c0.1-0.2,0.2-0.5,0.3-0.7
						s0.2-0.4,0.3-0.6c0.2-0.3,0.3-0.7,0.5-1c0-0.1,0.1-0.2,0.1-0.3c0.1-0.2,0.2-0.4,0.3-0.6c0.1-0.2,0.1-0.3,0.2-0.5
						c0.1-0.3,0.3-0.6,0.4-0.9c0.2-0.6,0.5-1.2,0.7-1.8c0.1-0.3,0.2-0.6,0.3-0.8c0.1-0.3,0.3-0.7,0.4-1c0.1-0.2,0.2-0.5,0.3-0.7
						c0.9-2.1,1.8-4.4,2.7-6.9c0.1-0.3,0.2-0.6,0.3-0.9c0.2-0.6,0.4-1.2,0.7-1.8c0.2-0.4,0.3-0.9,0.5-1.4c1-2.9,2.1-6.1,3.1-9.5
						c0.2-0.6,0.4-1.1,0.5-1.7c0.2-0.6,0.3-1.2,0.5-1.7c0.2-0.6,0.3-1.2,0.5-1.8c0.2-0.7,0.4-1.3,0.6-2c0.2-0.5,0.3-1.1,0.5-1.6
						c0.4-1.3,0.7-2.6,1-4c0.1-0.6,0.3-1.2,0.4-1.7c0.2-0.6,0.3-1.3,0.5-1.9c0.2-0.7,0.3-1.4,0.5-2.1c0.3-1.3,0.6-2.6,0.9-4
						c0.1-0.7,0.3-1.3,0.4-2c0.2-0.7,0.3-1.4,0.4-2.2l0,0c0.2-0.8,0.3-1.6,0.5-2.5c0-0.1,0.1-0.3,0.1-0.4c0.1-0.7,0.3-1.4,0.4-2.1
						c0.1-0.7,0.3-1.5,0.4-2.2c0-0.3,0.1-0.5,0.1-0.8c0.1-0.5,0.2-0.9,0.2-1.4c0-0.2,2.4-14.6,1.9-14.7v-0.2c0-0.3,0.1-0.6,0.1-0.9
						s0.1-0.6,0.1-0.9c0-0.4,0.1-0.8,0.1-1.2c0.1-0.8,0.1-1.5,0.2-2.3c0.1-0.7,0.1-1.5,0.2-2.2c0-0.1,0-0.2,0-0.3
						c0.1-1.4,0.2-2.9,0.3-4.4c0-0.7,0.1-1.4,0.1-2.1c0-0.6,0.1-1.3,0.1-1.9c0-0.1,0-0.3,0-0.4c0-0.4,0-0.7,0-1.1s0-0.7,0-1.1
						c0-0.7,0-1.3,0-2c0-0.6,0-1.1,0-1.6c0-0.4,0-0.8,0-1.2c0-0.5,0-1,0-1.5v-0.1c0-0.7,0-1.4,0-2.1l0,0c0-0.4,0-0.8,0-1.2
						c0-0.6,0-1.3,0-1.9s0-1.3-0.1-1.9c0-0.6,0-1.2-0.1-1.7c0-1-0.1-2-0.2-3c0-0.4-0.1-0.8-0.1-1.3c-0.1-0.9-0.1-1.8-0.2-2.7
						c0-0.4-0.1-0.7-0.1-1.1c-0.2-2.6-0.5-5-0.8-7.4c-0.1-0.4-0.1-0.9-0.2-1.3c-0.2-1.1-0.3-2.1-0.5-3.2c-0.1-0.5-0.2-1-0.2-1.5
						c-0.1-0.5-0.2-0.9-0.2-1.4v-0.1c-0.1-0.5-0.2-0.9-0.3-1.3c-0.1-0.5-0.2-0.9-0.3-1.4c-0.1-0.3-0.1-0.5-0.2-0.7
						c-0.1-0.3-0.1-0.6-0.2-0.9c-0.3-1.3-0.6-2.6-0.9-3.8c-0.1-0.4-0.2-0.8-0.3-1.2c-0.2-0.9-0.5-1.7-0.7-2.5
						c-0.1-0.4-0.2-0.8-0.3-1.2c-0.1-0.4-0.2-0.8-0.4-1.2l0,0c-0.2-0.8-0.5-1.5-0.8-2.2c-0.1-0.4-0.3-0.7-0.4-1.1
						c-0.3-0.8-0.6-1.5-0.9-2.3c-0.1-0.3-0.2-0.6-0.4-0.9c-0.1-0.3-0.3-0.7-0.4-1c-0.1-0.3-0.3-0.7-0.4-1c-0.1-0.3-0.3-0.6-0.4-1
						c-0.1-0.3-0.3-0.6-0.4-0.9c-0.1-0.3-0.3-0.6-0.4-0.9l0,0c-0.1-0.3-0.3-0.6-0.4-0.9c-0.1-0.3-0.3-0.6-0.4-0.9
						c-0.5-0.9-0.9-1.7-1.4-2.5c-0.2-0.3-0.3-0.5-0.5-0.8s-0.3-0.5-0.5-0.8s-0.3-0.5-0.5-0.8c-0.1-0.2-0.2-0.4-0.4-0.6
						c-0.1-0.2-0.2-0.3-0.3-0.5c-0.3-0.4-0.5-0.8-0.8-1.1c-0.2-0.2-0.3-0.5-0.5-0.7c-0.2-0.3-0.4-0.6-0.6-0.9
						c-0.3-0.3-0.5-0.7-0.8-1c-0.3-0.4-0.7-0.9-1-1.3l0,0c-0.2-0.2-0.4-0.4-0.5-0.7c-2.1-2.5-4.2-4.5-6.2-6.1
						c-0.1-0.1-0.2-0.2-0.4-0.3c-0.5-0.4-0.9-0.7-1.4-1.1c-0.2-0.2-0.5-0.3-0.7-0.5C41.6,5.8,41,5.4,40.3,5c-0.1,0-0.2-0.1-0.3-0.2
						c-0.5-0.3-1-0.6-1.5-0.8c-0.1-0.1-0.2-0.1-0.3-0.1c-0.6-0.3-1.2-0.6-1.7-0.8C36.4,3,36.3,3,36.2,3c20,6.7,126.9,41.4,244.5,42
						C411.2,45.7,668.5,0,668.5,0c3.3,4.2,6.3,8.5,8.8,13l0,0l0.1,0.3v0.1l-0.3-0.1l-0.8,9.3l0,0c2.4-1.1,4-1.9,4.7-2.2
						c0,0.1,0.1,0.1,0.1,0.2c15.6,33.3,12.4,71.6,4.7,102.6c-5.4,0.7-10.7,15.5-12,25.6c-0.5,3.9-0.4,7.1,0.5,8.6
						c0.1,0.2,0.2,0.3,0.4,0.4c-5.9,15-11,24.4-11,24.4s-77.7-3.1-116.3-7.3c-0.9-0.1-1.7-0.2-2.6-0.3c-3.1-0.3-6.2-0.7-9.5-1
						c-0.8-0.1-1.7-0.2-2.5-0.3s-1.5-0.2-2.3-0.2c-0.8-0.1-1.6-0.2-2.4-0.2c-0.8-0.1-1.7-0.2-2.5-0.3c-0.7-0.1-1.5-0.1-2.2-0.2
						c-0.9-0.1-1.9-0.2-2.8-0.3c-1.8-0.2-3.6-0.3-5.4-0.5c-1.7-0.1-3.3-0.3-5-0.5c-1.3-0.1-2.5-0.2-3.8-0.3c-1-0.1-2-0.2-3-0.3
						c-0.8-0.1-1.7-0.1-2.5-0.2c-0.3,0-0.6-0.1-1-0.1c-0.9-0.1-1.9-0.2-2.8-0.2c-3.1-0.3-6.3-0.5-9.5-0.8h-0.1h-0.1h-0.1
						c-0.1,0-0.3,0-0.3,0c-29.9-2.3-157.7,7.7-194.1,6.9c-6.1-0.1-12.1-0.2-18.1-0.2c-2.5,0-4.9,0-7.4,0c-10.5,0-20.9,0.2-31.1,0.6
						C133.4,179.5,45.7,195.7,44.9,195.8z"/>
					
						<linearGradient id="SVGID_14_" gradientUnits="userSpaceOnUse" x1="-1500.238" y1="1375.9016" x2="-1506.6647" y2="1250.584" gradientTransform="matrix(1 1.425933e-03 1.425933e-03 -1 1555.5364 1304.5394)">
						<stop  offset="0" style="stop-color:#FFE48F"/>
						<stop  offset="1" style="stop-color:#C77781"/>
					</linearGradient>
					<path class="st17" d="M69,110.1c-0.4,5.5-0.6,8.4-0.9,10.3l-26.8,5.9c7.1-25.9-0.1-59.6-1.4-63.2c-1.5-4-11.7,2.5-12,2.7
						l8.8-25.2h8L35.4,6.7c0,0,25.6,10.5,33.7,64.7C71.1,85,70.8,97.2,69,110.1z"/>
					
						<linearGradient id="SVGID_15_" gradientUnits="userSpaceOnUse" x1="-4900.1216" y1="-5041.3389" x2="-4893.4014" y2="-5296.7134" gradientTransform="matrix(0.1584 -0.9874 0.9874 0.1584 5894.3408 -3941.1257)">
						<stop  offset="0" style="stop-color:#D65F6E"/>
						<stop  offset="1" style="stop-color:#FBD767"/>
					</linearGradient>
					<path class="st18" d="M39.5,128.1l17.2-5.6c0,0,11.7-47.2,2.5-69.4C50,31,43.8,32.4,43.8,32.4S53.4,50.9,51,76
						S39.5,128.1,39.5,128.1z"/>
					<path class="st19" d="M39,257.7l-7.2-1.1c0,0-27.6-136.5-21.3-185C16.8,23.2,32.8,1.9,32.8,1.9s9.2,2,18.6,13l0,0
						C60.7,25.6,70.2,44.7,72,78.6c0.4,8.3,0.3,16.4-0.2,24.2c-0.2,2.7-0.4,5.3-0.7,7.9c-0.7-0.2-3.8,23.6-4.5,23.4
						c-2.9-0.7-5.7-7.7-5.7-7.7c0.3-2.7,3.7-22.7,3.9-25.5c0.8-8.7,1-17.6,0.4-26.4c-3.3-49.7-29.4-62-29.4-62S19.7,32.3,14.2,74.4
						S39,257.7,39,257.7z"/>
					<path class="st20" d="M44.9,195.8c0,0,0,0,0.1-0.1c0,0,0-0.1,0.1-0.1c0.1-0.1,0.1-0.3,0.3-0.5c0-0.1,0.1-0.1,0.1-0.2
						c0.1-0.2,0.3-0.5,0.4-0.9c0-0.1,0.1-0.1,0.1-0.2c0.3-0.7,0.8-1.6,1.3-2.6c0.1-0.2,0.2-0.4,0.3-0.7c0.1-0.2,0.2-0.5,0.3-0.7
						s0.2-0.4,0.3-0.6c0.2-0.3,0.3-0.7,0.5-1c0-0.1,0.1-0.2,0.1-0.3c0.1-0.2,0.2-0.4,0.3-0.6c0.1-0.2,0.1-0.3,0.2-0.5
						c0.1-0.3,0.3-0.6,0.4-0.9c0.2-0.6,0.5-1.2,0.7-1.8c0.1-0.3,0.2-0.6,0.3-0.8c0.1-0.3,0.3-0.7,0.4-1c0.1-0.2,0.2-0.5,0.3-0.7
						c0.9-2.1,1.8-4.4,2.7-6.9c0.1-0.3,0.2-0.6,0.3-0.9c0.2-0.6,0.4-1.2,0.7-1.8c0.2-0.4,0.3-0.9,0.5-1.4c1-2.9,2.1-6.1,3.1-9.5
						c0.2-0.6,0.4-1.1,0.5-1.7c0.2-0.6,0.3-1.2,0.5-1.7c0.2-0.6,0.3-1.2,0.5-1.8c0.2-0.7,0.4-1.3,0.6-2c0.2-0.5,0.3-1.1,0.5-1.6
						c0.4-1.3,0.7-2.6,1-4c0.1-0.6,0.3-1.2,0.4-1.7c0.2-0.6,0.3-1.3,0.5-1.9c0.2-0.7,0.3-1.4,0.5-2.1c0.3-1.3,0.6-2.6,0.9-4
						c0.1-0.7,0.3-1.3,0.4-2c0.2-0.7,0.3-1.4,0.4-2.2l0,0c0.2-0.8,0.3-1.6,0.5-2.5c0-0.1,0.1-0.3,0.1-0.4c0.1-0.7,0.3-1.4,0.4-2.1
						c0.1-0.7,0.3-1.5,0.4-2.2c0-0.3,0.1-0.5,0.1-0.8c0.1-0.5,0.2-0.9,0.2-1.4c0-0.2,0.1-0.3,0.1-0.5c0-0.1,0-0.2,0-0.2
						c0.7-0.3,2.2-13.9,1.8-14v-0.2c0-0.3,0.1-0.6,0.1-0.9s0.1-0.6,0.1-0.9c0-0.4,0.1-0.8,0.1-1.2c0.1-0.8,0.1-1.5,0.2-2.3
						c0.1-0.7,0.1-1.5,0.2-2.2c0-0.1,0-0.2,0-0.3c0.1-1.4,0.2-2.9,0.3-4.4c0-0.7,0.1-1.4,0.1-2.1c0-0.6,0.1-1.3,0.1-1.9
						c0-0.1,0-0.3,0-0.4c0-0.4,0-0.7,0-1.1s0-0.7,0-1.1c0-0.7,0-1.3,0-2c0-0.6,0-1.1,0-1.6c0-0.4,0-0.8,0-1.2c0-0.5,0-1,0-1.5v-0.1
						c0-0.7,0-1.4,0-2.1l0,0c0-0.4,0-0.8,0-1.2c0-0.6,0-1.3,0-1.9s0-1.3-0.1-1.9c0-0.6,0-1.2-0.1-1.7c0-1-0.1-2-0.2-3
						c0-0.4-0.1-0.8-0.1-1.3c-0.1-0.9-0.1-1.8-0.2-2.7c0-0.4-0.1-0.7-0.1-1.1c-0.2-2.6-0.5-5-0.8-7.4c-0.1-0.4-0.1-0.9-0.2-1.3
						c-0.2-1.1-0.3-2.1-0.5-3.2c-0.1-0.5-0.2-1-0.2-1.5c-0.1-0.5-0.2-0.9-0.2-1.4v-0.1c-0.1-0.5-0.2-0.9-0.3-1.3
						c-0.1-0.5-0.2-0.9-0.3-1.4c-0.1-0.3-0.1-0.5-0.2-0.7c-0.1-0.3-0.1-0.6-0.2-0.9c-0.3-1.3-0.6-2.6-0.9-3.8
						c-0.1-0.4-0.2-0.8-0.3-1.2c-0.2-0.9-0.5-1.7-0.7-2.5c-0.1-0.4-0.2-0.8-0.3-1.2c-0.1-0.4-0.2-0.8-0.4-1.2l0,0
						c-0.2-0.8-0.5-1.5-0.8-2.2c-0.1-0.4-0.3-0.7-0.4-1.1c-0.3-0.8-0.6-1.5-0.9-2.3c-0.1-0.3-0.2-0.6-0.4-0.9
						c-0.1-0.3-0.3-0.7-0.4-1c-0.1-0.3-0.3-0.7-0.4-1c-0.1-0.3-0.3-0.6-0.4-1c-0.1-0.3-0.3-0.6-0.4-0.9c-0.1-0.3-0.3-0.6-0.4-0.9
						l0,0c-0.1-0.3-0.3-0.6-0.4-0.9s-0.3-0.6-0.4-0.9c-0.5-0.9-0.9-1.7-1.4-2.5c-0.2-0.3-0.3-0.5-0.5-0.8s-0.3-0.5-0.5-0.8
						s-0.3-0.5-0.5-0.8c-0.1-0.2-0.2-0.4-0.4-0.6c-0.1-0.2-0.2-0.3-0.3-0.5c-0.3-0.4-0.5-0.8-0.8-1.1c-0.2-0.2-0.3-0.5-0.5-0.7
						c-0.2-0.3-0.4-0.6-0.6-0.9c-0.3-0.3-0.5-0.7-0.8-1c-0.3-0.4-0.7-0.9-1-1.3l0,0c-0.2-0.2-0.4-0.4-0.5-0.7
						c-2.1-2.5-4.2-4.5-6.2-6.1c-0.1-0.1-0.2-0.2-0.4-0.3c-0.5-0.4-0.9-0.7-1.4-1.1c-0.2-0.2-0.5-0.3-0.7-0.5
						C41.6,5.8,41,5.4,40.3,5c-0.1,0-0.2-0.1-0.3-0.2c-0.5-0.3-1-0.6-1.5-0.8c-0.1-0.1-0.2-0.1-0.3-0.1c-0.6-0.3-1.2-0.6-1.7-0.8
						C36.4,3,36.3,3,36.2,3c20,6.7,126.9,41.4,244.5,42C411.2,45.7,668.5,0,668.5,0c3.3,4.2,6.3,8.5,8.8,13l0,0l0.1,0.3v0.1
						l-0.3-0.1l-0.8,9.3l0,0c2.4-1.1,4-1.9,4.7-2.2c0,0.1,0.1,0.1,0.1,0.2c15.6,33.3,12.4,71.6,4.7,102.6
						c-5.4,0.7-10.7,15.5-12,25.6c-0.5,3.9-0.4,7.1,0.5,8.6c0.1,0.2,0.2,0.3,0.4,0.4c-5.9,15-11,24.4-11,24.4s-77.7-3.1-116.3-7.3
						c-0.9-0.1-1.7-0.2-2.6-0.3c-3.1-0.3-6.2-0.7-9.5-1c-0.8-0.1-1.7-0.2-2.5-0.3s-1.5-0.2-2.3-0.2c-0.8-0.1-1.6-0.2-2.4-0.2
						c-0.8-0.1-1.7-0.2-2.5-0.3c-0.7-0.1-1.5-0.1-2.2-0.2c-0.9-0.1-1.9-0.2-2.8-0.3c-1.8-0.2-3.6-0.3-5.4-0.5
						c-1.7-0.1-3.3-0.3-5-0.5c-1.3-0.1-2.5-0.2-3.8-0.3c-1-0.1-2-0.2-3-0.3c-0.8-0.1-1.7-0.1-2.5-0.2c-0.3,0-0.6-0.1-1-0.1
						c-0.9-0.1-1.9-0.2-2.8-0.2c-3.1-0.3-6.3-0.5-9.5-0.8c9.4,0.6,164.2,5.8,167.6-11.8c0.2-1.1,0.4-2.1,0.5-3.1
						c0.4-2.8,0.6-5.2,0.6-7.2c-0.1-8.8-3.9-9.7-5.6-10.9c-2.2-1.5-23.2-2.2-24.2-2.2c1.5-0.2,51.7-5.9,53.9-32.3
						c1.8-21.7-2.1-56.4-21.7-71c-2.2-1.6-4.5-3-7.1-4.1c-2.9-1.2-6-2.1-9.4-2.5c-34-4.2-289.7,32-352.2,33.2
						C227.7,58.4,99.8,28.9,93,37.7c-6.7,8.8-8.4,43.5-11.2,68c-7.1,61.5-21.2,71-19.6,74.5c1.4,3.2,81-4.4,174.2-3.8
						C133.4,179.5,45.7,195.7,44.9,195.8z"/>
					<path class="st0" d="M44.9,195.8c0,0-27.8-30.5-28.1-91c-0.2-54.5,20-74.4,27.4-72.3c7.4,2,11.2,31.6,8.1,58.7
						c-3,26.7-13.6,36.3-13.9,36.6c0.2-0.5,7.6-18.5,9.1-39.2c1.5-21-4.8-47.4-9.5-47.8c-4.8-0.4-15.6,21.4-15.8,60.3
						C22,140,46,178.5,46,178.5s7.4-17.6,13.1-41.9c0.7-3.2,1.5-6.4,2.1-9.8l6.5,6.3c0,0.2-0.1,0.4-0.1,0.5
						c-7.5,35.8-21.5,60.4-22.5,62.2C44.9,195.8,44.9,195.8,44.9,195.8L44.9,195.8z"/>
				</g>
				
					<linearGradient id="SVGID_16_" gradientUnits="userSpaceOnUse" x1="-969.3746" y1="332.9294" x2="-855.2519" y2="333.6383" gradientTransform="matrix(1 1.425933e-03 1.425933e-03 -1 1555.5364 1304.5394)">
					<stop  offset="0" style="stop-color:#FFE48F"/>
					<stop  offset="1" style="stop-color:#C77781"/>
				</linearGradient>
				<path class="st21" d="M698.8,965.4c-0.6,1.4-1.2,2.8-1.8,4.2c-0.1,0.3-0.2,0.5-0.4,0.8c-0.3,0.7-0.7,1.5-1,2.2
					c-0.1,0.2-0.2,0.4-0.3,0.7c-0.1,0.2-0.2,0.4-0.3,0.7l-3.9-0.1l-79-2.4h-0.4l-7.2-0.2l5.8-0.4l1.1-0.1h0.4l84.1-5.1l0,0
					L698.8,965.4z"/>
			</g>
			
				<linearGradient id="SVGID_17_" gradientUnits="userSpaceOnUse" x1="-1039.9032" y1="1041.0662" x2="-1420.1769" y2="1265.2354" gradientTransform="matrix(1 1.425933e-03 1.425933e-03 -1 1555.5364 1304.5394)">
				<stop  offset="0" style="stop-color:#FFE48F"/>
				<stop  offset="1" style="stop-color:#C77781"/>
			</linearGradient>
			<path class="st22" d="M63,141.7c0,0,85.2,10.5,207.6,9.4c122.3-1,286-27.5,286-27.5l-5.2,3.6l-209.3,24.1c0,0-13.5,5.1-13.9,7.5
				s4,11.9,4,11.9h-1.6c0,0-3.2-15.5-7.9-16.3c-4.8-0.8-259.7-0.8-259.7-0.8l-7.2-2.7l0.8-7L63,141.7z"/>
		</g>
		
			<linearGradient id="SVGID_18_" gradientUnits="userSpaceOnUse" x1="-1456.2283" y1="1142.0764" x2="-1494.9635" y2="1164.9105" gradientTransform="matrix(1 1.425933e-03 1.425933e-03 -1 1555.5364 1304.5394)">
			<stop  offset="0" style="stop-color:#FFE48F"/>
			<stop  offset="1" style="stop-color:#C77781"/>
		</linearGradient>
		<polygon class="st23" points="55.7,150.9 105.3,145.7 56.5,144.1 		"/>
		
			<linearGradient id="SVGID_19_" gradientUnits="userSpaceOnUse" x1="-1534.6992" y1="255.1078" x2="-1534.7008" y2="254.9968" gradientTransform="matrix(1 1.425933e-03 1.425933e-03 -1 1555.5364 1304.5394)">
			<stop  offset="0" style="stop-color:#B34537"/>
			<stop  offset="1" style="stop-color:#DD9057"/>
		</linearGradient>
		<path class="st24" d="M21.3,1047.3h0.1c-0.1,0-0.3,0-0.4,0l0,0c0,0,0,0,0.1-0.1C21.2,1047.2,21.2,1047.2,21.3,1047.3z"/>
		
			<linearGradient id="SVGID_20_" gradientUnits="userSpaceOnUse" x1="-1201.7367" y1="294.3008" x2="-1202.8712" y2="214.8894" gradientTransform="matrix(1 1.425933e-03 1.425933e-03 -1 1555.5364 1304.5394)">
			<stop  offset="0" style="stop-color:#B34537"/>
			<stop  offset="1" style="stop-color:#DD9057"/>
		</linearGradient>
		<path class="st25" d="M684.2,991.3c-0.4,0.5-0.7,1-1.1,1.5c-10,12.7-23.9,23.6-42.9,27.6c-21.7,4.5-224.2,20-337.7,22.4l0,0
			c-22.9,0.5-45.9,1-68.5,1.4c-95.8,1.8-183,2.8-210.1,3.1c0,0,0,0,0.1,0c4.5-0.9,11-5.6,16.3-10.2c0,0,0,0,0.1,0
			c0.1-0.1,0.2-0.2,0.3-0.3c5.4-4.7,9.4-9.3,8.9-9.4c0,0,19.3,2.5,49.5,4.9c0.4,0,0.9,0.1,1.3,0.1c0.1,0,0.2,0,0.3,0
			c22.2,1.8,49.9,3.5,80.1,4.2c0.4,0,0.8,0,1.2,0c0.1,0,0.2,0,0.3,0c34.3,0.8,74.6,0.7,119.1-1.4c106.7-5,322.5-34.5,373.9-42.5
			c0.1,0,0.3,0,0.4-0.1C678.6,992.1,681.6,991.7,684.2,991.3z"/>
	</g>
</g>
<g class="st26">
	<g>
		<g>
		</g>
	</g>
	<g>
		<g>
		</g>
	</g>
	<g>
		<g>
		</g>
	</g>
	<g>
		<g>
		</g>
	</g>
</g>
</svg>
