<?xml version="1.0" encoding="utf-8"?>
<!-- Generator: Adobe Illustrator 24.1.2, SVG Export Plug-In . SVG Version: 6.00 Build 0)  -->
<svg version="1.1" id="Camada_1" xmlns="http://www.w3.org/2000/svg" xmlns:xlink="http://www.w3.org/1999/xlink" x="0px" y="0px"
	 viewBox="0 0 1000 1000" style="enable-background:new 0 0 1000 1000;" xml:space="preserve">
<style type="text/css">
	.st0{fill:#2c2c2c;}
</style>
<g>
	<path class="st0" d="M722.7,10H277.3C129.6,10,10,129.6,10,277.3v445.5C10,870.3,129.6,990,277.3,990h445.5
		C870.3,990,990,870.3,990,722.7V277.3C990,129.6,870.3,10,722.7,10z M892,678.2c0,118-95.8,213.8-213.8,213.8H321.8
		C203.7,892,108,796.2,108,678.2V321.8C108,203.7,203.7,108,321.8,108h356.4c118,0,213.8,95.7,213.8,213.8L892,678.2L892,678.2z"/>
	<path class="st0" d="M508.8,663.9c-9,9.5-20.7,14.2-32.5,14.2s-23.5-4.8-32.5-14.2l-153.1-162c-9.4-10-13.6-23.2-13.1-36.3
		c0.4-11.8,4.6-23.5,13.1-32.4c8.5-9,19.5-13.4,30.7-13.8c12.3-0.5,24.8,3.9,34.3,13.8l120.7,127.6L688.9,336
		c9.4-10,21.9-14.4,34.3-13.8c11.1,0.5,22.1,4.9,30.6,13.8c8.5,9,12.7,20.7,13.1,32.4c0.5,13.1-3.6,26.3-13.1,36.3L508.8,663.9z"/>
</g>
</svg>
