<?xml version="1.0" encoding="utf-8"?>
<!-- Generator: Adobe Illustrator 24.1.2, SVG Export Plug-In . SVG Version: 6.00 Build 0)  -->
<svg version="1.1" id="Camada_1" xmlns="http://www.w3.org/2000/svg" xmlns:xlink="http://www.w3.org/1999/xlink" x="0px" y="0px"
	 viewBox="0 0 27.9 31.6" style="enable-background:new 0 0 27.9 31.6;" xml:space="preserve">
<style type="text/css">
	.st0{fill:#FFFFFF;}
</style>
<g>
	<path class="st0" d="M13.3,22.1c-1,1.5-3,8.5-4.7,8.9c-0.6,0-2.3,0.1-3.9,0.1c-2,0-4.1-0.2-4.1-1.1v-0.1l7.3-14.4
		c-1.3-2.6-7-12.5-7.4-14V1.1C1,1,1.7,0.9,2.6,0.9c2.6,0,6.9,0.2,7.1,0.4l4.2,8l4.8-8c0.3-0.5,0.5-0.6,0.9-0.6c2,0,4.9-0.2,7-0.2
		C27,0.8,27.4,1,27.4,1.4c0,0.2-0.3,0.8-0.3,1.1l-7.6,12.7c0.9,1.8,6.7,11.8,7.7,14.6c0,1.2-7.4,1.5-8.6,1.5c-0.7,0-0.7-0.3-1.1-1.1
		l-3.5-7.1C13.9,22.8,13.6,22.4,13.3,22.1z"/>
</g>
<g>
</g>
<g>
</g>
<g>
</g>
<g>
</g>
<g>
</g>
<g>
</g>
<g>
</g>
<g>
</g>
<g>
</g>
<g>
</g>
<g>
</g>
</svg>
