<?xml version="1.0" encoding="utf-8"?>
<!-- Generator: Adobe Illustrator 24.1.2, SVG Export Plug-In . SVG Version: 6.00 Build 0)  -->
<svg version="1.1" id="Camada_1" xmlns="http://www.w3.org/2000/svg" xmlns:xlink="http://www.w3.org/1999/xlink" x="0px" y="0px"
	 viewBox="0 0 647.7 646.6" style="enable-background:new 0 0 647.7 646.6;" xml:space="preserve">
<style type="text/css">
	.st0{fill:#FFFFFF;}
</style>
<g>
	<path class="st0" d="M647.7,323.3c-0.1,178.9-145.5,323.5-325,323.3C144.2,646.4-0.3,501.4,0,322.8C0.3,144.4,145.1,0,323.9,0
		C502.1,0,647.8,145.5,647.7,323.3z M323.2,129.1c0,0.2,0,0.3,0,0.5c-30.8,0-61.7-1.4-92.4,0.3c-54.5,3-96,38.4-99.3,92.4
		c-4.1,67-4,134.6,0,201.6c3.2,53.4,44,90,97.9,92.1c62.5,2.4,125.2,2.4,187.7,0c54.4-2.1,94.6-39.1,98.1-93.6
		c4.1-63.7,5.1-128,1.1-191.7c-4.1-64.6-44-98.4-109.4-101.5C379.1,128,351.1,129.1,323.2,129.1z"/>
	<path class="st0" d="M324.7,164.2c28.4,0,56.8-0.9,85.1,0.2c41.9,1.7,69.3,24.6,71.2,66.4c2.9,61.8,2.6,124-0.1,185.8
		c-1.8,39.6-28.3,63.6-68,64.8c-59.6,1.7-119.3,1.7-178.9,0c-39.7-1.1-66.3-24.9-68.1-64.7c-2.9-62.3-3-124.9,0-187.2
		c1.9-40.9,29.4-63.5,70.8-65.1C265.9,163.2,295.3,164.2,324.7,164.2z M423.6,323.4c0.1-55.8-45.1-101.1-100.7-100.9
		c-55.1,0.2-99.8,45.1-99.9,100.2c-0.1,55.8,45.2,101.2,100.7,100.9C378.9,423.3,423.4,378.6,423.6,323.4z M451.3,218.8
		c0-13-11-23.4-24.3-23.1c-12.8,0.4-22.5,10.4-22.5,23.1c0,12.6,10,22.9,22.6,23.3C440,242.5,451.3,231.6,451.3,218.8z"/>
	<path class="st0" d="M388.6,323.7c-0.3,35.9-29.7,65-65.6,64.8c-36.6-0.2-65.5-30-64.9-66.9c0.5-35.8,30.7-64.9,66.3-64.1
		C360.4,258.4,388.8,287.6,388.6,323.7z"/>
</g>
<g>
</g>
<g>
</g>
<g>
</g>
<g>
</g>
<g>
</g>
<g>
</g>
<g>
</g>
<g>
</g>
<g>
</g>
<g>
</g>
<g>
</g>
</svg>
