<?xml version="1.0" encoding="utf-8"?>
<!-- Generator: Adobe Illustrator 24.1.2, SVG Export Plug-In . SVG Version: 6.00 Build 0)  -->
<svg version="1.1" id="Camada_1" xmlns="http://www.w3.org/2000/svg" xmlns:xlink="http://www.w3.org/1999/xlink" x="0px" y="0px"
	 viewBox="0 0 29.6 29.6" style="enable-background:new 0 0 29.6 29.6;" xml:space="preserve">
<style type="text/css">
	.st0{fill:#AAAAAA;}
</style>
<path class="st0" d="M0,14.8C0,6.6,6.6,0,14.8,0c8.4,0,14.8,6.8,14.8,14.8c0,8-6.4,14.8-14.8,14.8C6.4,29.6,0,22.8,0,14.8z
	 M19.5,9.4c-0.1-0.5-0.3-0.9-0.4-1.4c-0.7-2.3-1.8-4.3-3.3-6.2c-0.5-0.6-0.5-0.5-1.2-0.5c-0.2,0-0.4,0.1-0.5,0.2
	c-1.9,2.2-3.2,4.8-3.9,7.7c0,0,0,0.1,0,0.1C13.2,9.4,16.4,9.4,19.5,9.4z M20.2,14.8c0-0.1,0-0.1,0-0.1c0-1.2-0.1-2.5-0.3-3.7
	c0-0.2-0.1-0.2-0.2-0.2c-3.2,0-6.4,0-9.6,0c-0.2,0-0.2,0.1-0.2,0.2c-0.1,0.9-0.2,1.8-0.3,2.6c0,0.4,0,0.8,0,1.2
	C13,14.8,16.6,14.8,20.2,14.8z M9.5,16.1c0,0.1,0,0.1,0,0.2c0.1,1.2,0.3,2.5,0.5,3.7c0,0.2,0.1,0.2,0.3,0.2c3,0,6,0,9,0
	c0.2,0,0.2,0,0.2-0.2c0.3-1.1,0.4-2.2,0.5-3.3c0-0.2,0-0.4,0-0.5C16.6,16.1,13,16.1,9.5,16.1z M10.5,21.5c0,0.1,0,0.1,0,0.1
	c0.7,2.2,1.8,4.3,3.3,6.1c0.4,0.5,0.4,0.5,1.1,0.5c0.3,0,0.5-0.1,0.6-0.3c0.1-0.2,0.2-0.3,0.4-0.4c1.4-1.7,2.4-3.6,3.1-5.7
	c0-0.1,0.1-0.2,0.1-0.4C16.2,21.5,13.4,21.5,10.5,21.5z M17.3,1.6c0.2,0.3,0.4,0.6,0.6,0.8c1.4,2.1,2.4,4.4,3,6.8
	c0,0.2,0.1,0.2,0.3,0.2c1.9,0,3.9,0,5.8,0c0.1,0,0.1,0,0.2,0c-1-2.2-2.4-4-4.3-5.4C21.2,2.8,19.3,2,17.3,1.6z M12.3,1.6
	C9.7,2.1,7.4,3.3,5.5,5.1c-1.3,1.2-2.3,2.7-3,4.3c0.1,0,0.1,0,0.2,0c2,0,3.9,0,5.9,0c0.2,0,0.2-0.1,0.2-0.2c0.5-2.1,1.3-4.1,2.5-6
	C11.5,2.7,11.9,2.1,12.3,1.6z M26.5,21.5c-0.1,0-0.2,0-0.2,0c-1.8,0-3.6,0-5.5,0c-0.2,0-0.2,0.1-0.3,0.2c-0.7,2.2-1.7,4.3-3.1,6.1
	c0,0-0.1,0.1-0.1,0.2c2.1-0.4,3.9-1.2,5.6-2.5C24.3,24.5,25.5,23.1,26.5,21.5z M3.2,21.5c1.1,1.8,2.5,3.3,4.2,4.4c1.5,1,3.2,1.7,5,2
	c0-0.1-0.1-0.1-0.1-0.1c-1.4-1.9-2.4-3.9-3.1-6.2c0-0.1-0.1-0.2-0.3-0.2c-1.8,0-3.7,0-5.5,0C3.3,21.5,3.3,21.5,3.2,21.5z M21.2,10.8
	c0,0.1,0,0.1,0,0.2c0.2,1.2,0.3,2.5,0.3,3.7c0,0.2,0.1,0.2,0.2,0.2c2.1,0,4.2,0,6.3,0c0.1,0,0.1,0,0.2,0c0-0.1,0-0.2,0-0.3
	c0-1.2-0.2-2.4-0.6-3.5c0-0.2-0.1-0.2-0.3-0.2c-2,0-4,0-6,0C21.3,10.8,21.3,10.8,21.2,10.8z M8.4,10.8C8.4,10.8,8.3,10.8,8.4,10.8
	c-2.1,0-4.2,0-6.2,0c-0.1,0-0.2,0-0.2,0.1c-0.4,1.2-0.6,2.4-0.6,3.7c0,0.2,0.1,0.2,0.2,0.2c2.1,0,4.2,0,6.3,0c0.1,0,0.1,0,0.2,0
	C8.1,13.4,8.2,12.1,8.4,10.8z M1.4,16.2C1.4,16.2,1.4,16.2,1.4,16.2c0,0.1,0,0.2,0,0.2c0.2,1.3,0.5,2.5,1,3.6
	c0.1,0.1,0.1,0.2,0.3,0.2c1.9,0,3.9,0,5.8,0c0.1,0,0.1,0,0.2,0c-0.2-1.3-0.4-2.7-0.6-4C5.9,16.2,3.7,16.2,1.4,16.2z M28.2,16.2
	c-0.1,0-0.1,0-0.2,0c-2.1,0-4.2,0-6.4,0c-0.2,0-0.2,0.1-0.2,0.2c-0.1,0.9-0.2,1.8-0.3,2.7c-0.1,0.4-0.1,0.8-0.2,1.2
	c0.1,0,0.1,0,0.1,0c2,0,3.9,0,5.9,0c0.1,0,0.2-0.1,0.2-0.2c0.3-0.8,0.6-1.6,0.8-2.4C28.1,17.1,28.1,16.7,28.2,16.2z"/>
</svg>
