<?xml version="1.0" encoding="utf-8"?>
<!-- Generator: Adobe Illustrator 24.1.2, SVG Export Plug-In . SVG Version: 6.00 Build 0)  -->
<svg version="1.1" id="Camada_1" xmlns="http://www.w3.org/2000/svg" xmlns:xlink="http://www.w3.org/1999/xlink" x="0px" y="0px"
	 viewBox="0 0 41.5 41.5" style="enable-background:new 0 0 41.5 41.5;" xml:space="preserve">
<style type="text/css">
	.st0{fill:#FFFFFF;}
</style>
<path class="st0" d="M20.7,0C9.3,0,0,9.3,0,20.7s9.3,20.7,20.7,20.7s20.7-9.3,20.7-20.7S32.2,0,20.7,0z M32.2,16.3
	c0,0.2,0,0.5,0,0.7c0,7.3-5.5,15.7-15.7,15.7c-3.1,0-6-0.9-8.4-2.5c0.4,0.1,0.9,0.1,1.3,0.1c2.6,0,5-0.9,6.8-2.4
	c-2.4,0-4.4-1.6-5.1-3.8c0.3,0.1,0.7,0.1,1,0.1c0.5,0,1-0.1,1.5-0.2c-2.5-0.5-4.4-2.7-4.4-5.4c0,0,0,0,0-0.1
	c0.7,0.4,1.6,0.7,2.5,0.7c-1.5-1-2.5-2.7-2.5-4.6c0-1,0.3-2,0.7-2.8c2.7,3.3,6.8,5.5,11.3,5.8c-0.1-0.4-0.1-0.8-0.1-1.3
	c0-3,2.5-5.5,5.5-5.5c1.6,0,3,0.7,4,1.7c1.3-0.2,2.4-0.7,3.5-1.3c-0.4,1.3-1.3,2.4-2.4,3c1.1-0.1,2.2-0.4,3.2-0.9
	C34.2,14.6,33.3,15.5,32.2,16.3z"/>
<g>
</g>
<g>
</g>
<g>
</g>
<g>
</g>
<g>
</g>
<g>
</g>
<g>
</g>
<g>
</g>
<g>
</g>
<g>
</g>
<g>
</g>
<g>
</g>
<g>
</g>
<g>
</g>
<g>
</g>
</svg>
