<?xml version="1.0" encoding="utf-8"?>
<!-- Generator: Adobe Illustrator 24.1.2, SVG Export Plug-In . SVG Version: 6.00 Build 0)  -->
<svg version="1.1" id="Camada_1" xmlns="http://www.w3.org/2000/svg" xmlns:xlink="http://www.w3.org/1999/xlink" x="0px" y="0px"
	 viewBox="0 0 41.5 41.5" style="enable-background:new 0 0 41.5 41.5;" xml:space="preserve">
<style type="text/css">
	.st0{fill:#FFFFFF;}
</style>
<path class="st0" d="M20.7,0C9.3,0,0,9.3,0,20.7c0,11.5,9.3,20.7,20.7,20.7c11.5,0,20.7-9.3,20.7-20.7C41.5,9.3,32.2,0,20.7,0z
	 M30.8,13.2c-0.1,1.9-3.6,16.1-3.6,16.1s-0.2,0.8-1,0.9c-0.3,0-0.6,0-1-0.4c-0.8-0.7-2.6-2-4.4-3.2c-0.5,0.4-1.6,1.3-2.6,2.4
	c-1.5,1.5-1.3,0-1.3,0l0.5-5l0,0c0-0.1,0.1-0.1,0.1-0.1s8.9-7.9,9.2-8.8c0-0.1-0.1-0.1-0.1-0.1c-0.6,0.2-10.9,6.7-12,7.4
	c-0.1,0-0.3,0-0.3,0l-5-1.6c0,0-0.6-0.2-0.4-0.8c0-0.1,0.1-0.2,0.4-0.4C10.3,19,29.6,12,29.6,12s0.5-0.2,0.9-0.1
	c0.1,0.1,0.2,0.1,0.3,0.4c0,0.1,0,0.3,0,0.4C30.9,12.9,30.9,13,30.8,13.2z"/>
<g>
</g>
<g>
</g>
<g>
</g>
<g>
</g>
<g>
</g>
<g>
</g>
<g>
</g>
<g>
</g>
<g>
</g>
<g>
</g>
<g>
</g>
<g>
</g>
<g>
</g>
<g>
</g>
<g>
</g>
</svg>
