<?xml version="1.0" encoding="utf-8"?>
<!-- Generator: Adobe Illustrator 26.2.1, SVG Export Plug-In . SVG Version: 6.00 Build 0)  -->
<svg version="1.1" id="Layer_1" xmlns="http://www.w3.org/2000/svg" xmlns:xlink="http://www.w3.org/1999/xlink" x="0px" y="0px"
	 viewBox="0 0 1000 1000" style="enable-background:new 0 0 1000 1000;" xml:space="preserve">
<style type="text/css">
	.st0{fill:#FFFFFF;}
</style>
<path class="st0" d="M561,1000c-1.2,0-4-1.2-5.1-2.6C591,973.7,624,946,654,913.1c38.1-42.2,68.2-88.2,92-137h172.8
	c-18.1,28.9-40.6,55.3-64.1,80.3C774.7,936.9,671.2,986.9,561,1000 M934.6,524.3h65.4c-2.6,70-20.8,137.1-51,199H769.4
	c23.6-63.3,36.6-130.4,39.3-199h73.5 M882.2,473.1h-73.5c-4-69.9-18.5-139.6-44.6-205.7h52.4h51.2h77.3
	c32.6,63.4,51,133.1,54.9,205.7h-65.4 M816.6,216.1h-75.9c-22.5-44.8-51.2-88.3-85.3-126.5C625.2,56.7,591,28.9,555.8,5.3
	c1.2-1.4,2.6-1.4,2.6-1.4L557,0c112.8,13.1,216.3,63.1,297.6,143.6c22.3,22.5,42.1,46.1,59,72.6h-45.7 M703.8,267.4
	c28.9,64.7,44.6,134.4,48.5,204.3H519.1V267.4H703.8z M677.7,214.7H519.1V47.4c34,22.3,65.6,48.7,94.4,80.4
	C638.4,155.5,659.2,184.4,677.7,214.7 M568.9,723.3h-51.2V525.8h233.4c-2.7,67.1-17.1,134.3-43.3,197.6h-86.6 M621.2,776.1h61.7
	c-19.5,34.3-43.3,67.3-70.8,97.5c-28.9,31.6-60.4,59.4-94.4,81.6V776.1h51.2 M314.5,216.1c17.2-30.3,39.3-60.7,62.9-87
	c27.6-30.2,56.5-55.4,89.3-76.4v163.5L314.5,216.1L314.5,216.1z M307.9,776.1h158.8v175.3c-32.8-21.2-61.7-47.5-89.3-77.8
	C350,844.7,327.6,810.4,307.9,776.1 M323.7,473.1h-85c3.9-69.9,19.7-139.6,48.4-204.3h179.6v204.3h-90.5 M376.1,525.8h90.5v197.6
	H281.8c-26.3-61.9-40.7-130.4-43.2-197.6h85 M431.1,1.3v1.3c0,1.3,1.5,1.3,2.8,1.3c-35.3,23.6-68.1,52.8-98.3,85.7
	c-35.6,38.2-64.3,80.3-86.6,125.1H86.5c18.4-25,38-48.7,59.1-71.1C224.1,64.6,323.7,15.8,431.1,1.3 M145.5,856.4
	c-24.9-25-46-52.7-64.2-81.7h161.2c24.9,50.2,55.1,96.2,93.1,137.1c30.2,32.9,62.9,61.9,98.3,85.6c-1.3,0-2.8,1.4-2.8,1.4
	C323.7,984.4,224.1,935.4,145.5,856.4 M59,471.7H0c4-71.1,23.6-140.9,55-204.3h170.4c-26.1,66.1-40.6,134.4-44.7,204.3H110
	 M110,524.3h70.8c2.8,68.6,15.8,135.7,39.3,199H51.1C20.9,661.5,4,594.3,0,524.3h59"/>
</svg>
